# xmcd CD database file
#
# Track frame offsets:
#	150
#	10507
#	29545
#	43670
#	58660
#	75977
#	88835
#	99427
#	113990
#	124270
#	143367
#	157665
#
# Disc length: 2261 seconds
#
# Revision: 0
# Processed by: cddbd v1.5.2PL0 Copyright (c) Steve Scherf et al.
# Submitted via: CDex 1.70beta3
#
DISCID=8708d30c
DTITLE=Ruth Price - My Name Is Ruth Price... I Sing
DYEAR=1955
DGENRE=Jazz
TTITLE0=My Shining Hour
TTITLE1=Ev'ry Time
TTITLE2=Calypso Blues
TTITLE3=I Don't Want To Walk Without You
TTITLE4=Who Am I
TTITLE5=Gentleman Friend
TTITLE6=I'm Old Fashioned
TTITLE7=Give Me The Simple Life
TTITLE8=Sleighride In July 
TTITLE9=Shadrack
TTITLE10=Someday My Prince Will Come
TTITLE11=Exactly Like You
EXTD=YEAR: 1955
EXTT0=
EXTT1=
EXTT2=
EXTT3=
EXTT4=
EXTT5=
EXTT6=
EXTT7=
EXTT8=
EXTT9=
EXTT10=
EXTT11=
PLAYORDER=
